<svg xmlns="http://www.w3.org/2000/svg" xmlns:xlink="http://www.w3.org/1999/xlink" width="532.928" height="441.386" viewBox="0 0 532.928 441.386"><defs><linearGradient id="a" x1="0.824" y1="0.354" x2="0.152" y2="0.641" gradientUnits="objectBoundingBox"><stop offset="0" stop-color="#fff"/><stop offset="1"/></linearGradient><linearGradient id="b" x1="0.812" y1="0.279" x2="0.221" y2="0.627" xlink:href="#a"/><linearGradient id="c" x1="-3.079" y1="2.205" x2="-4.206" y2="2.476" xlink:href="#a"/><linearGradient id="d" x1="-2.901" y1="2.448" x2="-3.764" y2="2.794" xlink:href="#a"/><linearGradient id="e" x1="-0.887" y1="0.914" x2="-1.886" y2="1.188" xlink:href="#a"/><linearGradient id="f" x1="-1.166" y1="0.915" x2="-2.075" y2="1.254" xlink:href="#a"/><linearGradient id="g" x1="0" y1="0.5" x2="1" y2="0.5" xlink:href="#a"/><linearGradient id="l" x1="-0.133" y1="0.496" x2="0.948" y2="0.504" xlink:href="#a"/><linearGradient id="m" x1="0.549" y1="0.317" x2="0.251" y2="0.618" xlink:href="#a"/><linearGradient id="n" x1="0.681" y1="0.233" x2="0.286" y2="0.664" xlink:href="#a"/><linearGradient id="o" x1="0" y1="0.5" x2="1" y2="0.5" xlink:href="#a"/><linearGradient id="p" x1="0" y1="0.5" x2="1" y2="0.5" xlink:href="#a"/><linearGradient id="q" x1="0" y1="0.5" x2="1" y2="0.5" xlink:href="#a"/><linearGradient id="r" x1="0.627" y1="-0.029" x2="0.445" y2="0.73" xlink:href="#a"/><linearGradient id="s" x1="0.207" y1="0.472" x2="1.627" y2="0.568" xlink:href="#a"/><linearGradient id="u" x1="0.353" y1="0.124" x2="0.881" y2="0.967" xlink:href="#a"/><linearGradient id="v" x1="0.31" y1="0.123" x2="0.787" y2="0.934" xlink:href="#a"/><linearGradient id="w" x1="0.491" y1="0.399" x2="0.624" y2="0.946" xlink:href="#a"/><linearGradient id="ac" x1="7.382" y1="15.248" x2="8.341" y2="15.248" xlink:href="#a"/><linearGradient id="ad" x1="10.17" y1="14.703" x2="10.082" y2="16.128" xlink:href="#a"/><linearGradient id="ae" x1="1.037" y1="-2.295" x2="1.996" y2="-2.295" xlink:href="#a"/><linearGradient id="af" x1="1.822" y1="-2.883" x2="1.735" y2="-1.458" xlink:href="#a"/><linearGradient id="ag" x1="0.503" y1="0.991" x2="0.494" y2="-0.414" gradientUnits="objectBoundingBox"><stop offset="0" stop-color="#fff"/><stop offset="0.131" stop-color="#fbfbfb"/><stop offset="0.257" stop-color="#efefef"/><stop offset="0.382" stop-color="#dcdcdc"/><stop offset="0.505" stop-color="silver"/><stop offset="0.627" stop-color="#9d9d9d"/><stop offset="0.749" stop-color="#727272"/><stop offset="0.871" stop-color="#3f3f3f"/><stop offset="0.989" stop-color="#050505"/><stop offset="1"/></linearGradient></defs><g transform="translate(-131.192 -299.443)"><g transform="translate(134.699 299.443)"><g transform="translate(447.3 250.027)"><g transform="translate(6.703 43.39)"><path d="M270.116,382.026c-7.849-6.589-8.995-.221-18.732-5.5,0,0,2.257,13.407,11.621,13.167,9.379-.247,13.049-.2,13.049-.2S277.976,388.608,270.116,382.026Zm-6.421,2.992c-4.4.179-6.787,2.44-8.211-3.1a3.626,3.626,0,0,0,4.2,1.043C265.54,380.557,268.106,384.843,263.694,385.018Z" transform="translate(-251.384 -376.526)" fill="#abbfda"/></g><g transform="translate(0 25.793)"><path d="M264.465,376.261c-6.22-5.223-7.126-.175-14.841-4.358,0,0,1.789,10.624,9.208,10.434s10.338-.16,10.338-.16S270.692,381.476,264.465,376.261Zm-5.089,2.371c-3.483.141-5.375,1.93-6.505-2.455A2.877,2.877,0,0,0,256.2,377C260.841,375.1,262.873,378.5,259.375,378.633Z" transform="translate(-249.623 -371.903)" fill="#abbfda"/></g><g transform="translate(11.984)"><path d="M260.444,380.593c3.365-7.388-1.74-6.913.228-15.466,0,0-9.756,4.56-7.586,11.663S256,386.71,256,386.71,257.083,387.985,260.444,380.593Zm-3.647-4.271c-1.066-3.319-3.3-4.663.628-6.924a2.87,2.87,0,0,0,.091,3.426C260.6,376.79,257.867,379.656,256.8,376.322Z" transform="translate(-252.771 -365.127)" fill="#abbfda"/></g><g transform="translate(29.079 28.552)"><path d="M257.82,395.417s3.247-1.717,11.7-5.775,4.339-17.015,4.339-17.015c-6.258,9.139-10.178,3.993-14.16,13.433C255.708,395.505,257.82,395.417,257.82,395.417Zm11.6-13.277a3.629,3.629,0,0,0,3.258-2.844c1.256,5.577-1.9,4.655-5.9,6.5S263.1,382.669,269.419,382.141Z" transform="translate(-257.263 -372.628)" fill="#abbfda"/></g><g transform="translate(21.353 22.196)"><path d="M255.634,387.345s2.333-1.233,8.416-4.153,3.121-12.234,3.121-12.234c-4.5,6.57-7.32,2.87-10.186,9.657S255.634,387.345,255.634,387.345Zm8.336-9.551a2.608,2.608,0,0,0,2.345-2.044c.9,4.012-1.367,3.35-4.237,4.674C259.2,381.765,259.433,378.175,263.97,377.794Z" transform="translate(-255.233 -370.958)" fill="#abbfda"/></g><g transform="translate(15.131 15.07)"><path d="M271.869,417.977l-1.214-.217c.008-.05.815-5.318-4.941-15.755a66.925,66.925,0,0,0-4.884-7.362c-4.739-6.486-9.216-12.611-6.311-25.557l1.207.27c-2.783,12.4,1.336,18.035,6.1,24.559a68.771,68.771,0,0,1,4.971,7.491C272.8,412.3,271.911,417.752,271.869,417.977Z" transform="translate(-253.598 -369.086)" fill="#abbfda"/></g></g><g transform="translate(314.663 225.677)"><g transform="translate(5.219 49.222)"><path d="M237.423,381.025c-8.26-8.983-10.586-1.637-21.274-9.364,0,0,.609,16.174,11.7,17.327,11.111,1.146,15.439,1.766,15.439,1.766S245.695,390,237.423,381.025Zm-8.039,2.547c-5.222-.461-8.39,1.842-9.223-4.914a4.322,4.322,0,0,0,4.8,1.873C232.247,378.589,234.622,384.043,229.384,383.572Z" transform="translate(-216.149 -371.661)" fill="#feedbe"/></g><g transform="translate(0 27.41)"><path d="M231.633,373.354c-6.543-7.118-8.386-1.3-16.855-7.423,0,0,.483,12.816,9.276,13.73s12.23,1.4,12.23,1.4S238.188,380.464,231.633,373.354Zm-6.368,2.017c-4.138-.366-6.646,1.458-7.308-3.894a3.423,3.423,0,0,0,3.8,1.485C227.534,371.42,229.414,375.748,225.265,375.371Z" transform="translate(-214.778 -365.931)" fill="#feedbe"/></g><g transform="translate(16.565)"><path d="M227.36,376.959c5.108-8.211-.993-8.432,2.642-18.229,0,0-12.219,3.894-10.749,12.611s1.922,12.162,1.922,12.162S222.26,385.174,227.36,376.959Zm-3.65-5.6c-.75-4.084-3.178-6.014,1.8-8.085a3.429,3.429,0,0,0-.415,4.061C228.125,372.49,224.46,375.46,223.71,371.36Z" transform="translate(-219.13 -358.73)" fill="#feedbe"/></g><g transform="translate(30.579 37.677)"><path d="M223.316,393.077s4.1-1.53,14.7-5.025c10.593-3.494,7.735-19.424,7.735-19.424-8.793,9.828-12.634,3.152-18.785,13.688S223.316,393.077,223.316,393.077Zm15.728-13.9a4.319,4.319,0,0,0,4.286-2.859c.628,6.779-2.958,5.207-7.959,6.772C230.355,384.672,231.508,378.833,239.045,379.176Z" transform="translate(-222.811 -368.628)" fill="#feedbe"/></g><g transform="translate(23.364 28.267)"><path d="M221.278,383.738s2.946-1.1,10.578-3.612c7.617-2.512,5.561-13.97,5.561-13.97-6.323,7.069-9.086,2.265-13.509,9.844S221.278,383.738,221.278,383.738Zm11.313-10a3.1,3.1,0,0,0,3.083-2.052c.449,4.872-2.128,3.742-5.725,4.868S227.17,373.495,232.591,373.739Z" transform="translate(-220.916 -366.156)" fill="#feedbe"/></g><g transform="translate(18.086 17.209)"><path d="M235.035,423.649l-1.4-.445c.019-.057,1.778-6.155-3.414-19.364a79.832,79.832,0,0,0-4.64-9.44c-4.6-8.386-8.949-16.307-3.532-31.148l1.382.506c-5.184,14.213-1.188,21.5,3.441,29.934a81.6,81.6,0,0,1,4.72,9.611C237,417.082,235.119,423.386,235.035,423.649Z" transform="translate(-219.529 -363.251)" fill="#feedbe"/></g></g><g transform="translate(425.812 275.375)"><g transform="translate(12.698 49.139)"><path d="M269.133,386.278c-10.483-4.61-9.718,2.581-21.819-.038,0,0,6.616,13.68,16.593,10.491s13.939-4.3,13.939-4.3S279.627,390.884,269.133,386.278Zm-5.953,5.223c-4.663,1.564-6.517,4.739-9.779-.758a4.05,4.05,0,0,0,4.831-.194C263.766,386.133,267.861,389.932,263.179,391.5Z" transform="translate(-247.314 -384.695)" fill="#fddc7e"/></g><g transform="translate(0 32.676)"><path d="M261.263,381.625c-8.306-3.654-7.7,2.044-17.285-.031,0,0,5.242,10.837,13.144,8.31s11.046-3.4,11.046-3.4S269.577,385.272,261.263,381.625Zm-4.716,4.134c-3.692,1.245-5.162,3.757-7.75-.6a3.213,3.213,0,0,0,3.829-.152C257.011,381.511,260.258,384.518,256.547,385.759Z" transform="translate(-243.978 -380.37)" fill="#fddc7e"/></g><g transform="translate(7.492)"><path d="M256.314,388.451c1.3-8.98-4.031-6.871-4.594-16.665,0,0-9.04,7.948-4.5,14.887,4.56,6.947,6.235,9.733,6.235,9.733S255.02,397.438,256.314,388.451Zm-5.249-3.437c-2.185-3.228-5-3.974-1.5-7.628a3.211,3.211,0,0,0,1.172,3.647C255.286,384.325,253.254,388.257,251.065,385.013Z" transform="translate(-245.946 -371.786)" fill="#fddc7e"/></g><g transform="translate(38.466 22.565)"><path d="M255.414,407.188s2.946-2.859,10.75-9.859-.666-19.615-.666-19.615c-3.856,11.766-9.672,7.468-10.993,18.846S255.414,407.188,255.414,407.188Zm8.287-17.875a4.055,4.055,0,0,0,2.608-4.073c3.095,5.592-.582,5.592-4.29,8.82C258.3,397.31,257.093,391.855,263.7,389.312Z" transform="translate(-254.083 -377.714)" fill="#fddc7e"/></g><g transform="translate(26.384 19.619)"><path d="M251.867,398.135s2.12-2.052,7.731-7.088-.48-14.107-.48-14.107c-2.771,8.462-6.958,5.371-7.906,13.555S251.867,398.135,251.867,398.135Zm5.961-12.855a2.916,2.916,0,0,0,1.877-2.927c2.223,4.023-.419,4.02-3.087,6.345S253.074,387.111,257.828,385.28Z" transform="translate(-250.909 -376.94)" fill="#fddc7e"/></g><g transform="translate(13.867 17.285)"><path d="M281.541,423.444l-1.374.145c-.008-.053-.792-5.961-10.232-15.359a75.161,75.161,0,0,0-7.544-6.368c-7.114-5.478-13.833-10.647-14.769-25.446l1.382-.088c.894,14.172,7.072,18.93,14.233,24.438a76.752,76.752,0,0,1,7.678,6.486C280.756,417.056,281.51,423.185,281.541,423.444Z" transform="translate(-247.621 -376.327)" fill="#fddc7e"/></g></g><g transform="translate(354.105 155.394)"><g transform="translate(0 22.036)"><path d="M242.327,373.321c1.907-14.792-6.795-11.187-7.975-27.266,0,0-14.651,13.292-7,24.578,7.666,11.3,10.491,15.831,10.491,15.831S240.435,388.12,242.327,373.321Zm-8.709-5.516c-3.673-5.249-8.317-6.4-2.653-12.493a5.276,5.276,0,0,0,2.021,5.961C240.538,366.564,237.3,373.077,233.618,367.805Z" transform="translate(-225.14 -346.055)" fill="#fddc7e"/></g><g transform="translate(18.208)"><path d="M243.542,361.872c1.511-11.72-5.386-8.865-6.319-21.606,0,0-11.61,10.533-5.546,19.474s8.313,12.546,8.313,12.546S242.042,373.6,243.542,361.872Zm-6.9-4.374c-2.908-4.157-6.589-5.066-2.1-9.9a4.179,4.179,0,0,0,1.6,4.724C242.122,356.516,239.556,361.678,236.64,357.5Z" transform="translate(-229.923 -340.266)" fill="#fddc7e"/></g><g transform="translate(42.61 0.342)"><path d="M247.328,355.982c11.7-1.675,7.1-7.556,19.128-11.865,0,0-13.254-8.37-20.251-.137-7,8.249-9.863,11.366-9.863,11.366S235.627,357.676,247.328,355.982Zm2.368-7.815c3.228-3.917,3.121-7.708,8.976-4.674a4.181,4.181,0,0,0-4.126,2.805C252.1,353.184,246.449,352.092,249.7,348.167Z" transform="translate(-236.334 -340.356)" fill="#fddc7e"/></g><g transform="translate(17.418 50.881)"><path d="M229.782,359.133s4.655,2.626,16.269,9.8,24.255-8.043,24.255-8.043c-16.113-.491-12.885-9.341-27.582-6.8C228.019,356.61,229.782,359.133,229.782,359.133Zm25.378,3.776a5.278,5.278,0,0,0,6.045,1.762c-5.851,5.919-7.2,1.329-12.6-2.116C243.184,359.107,249.553,355.59,255.159,362.909Z" transform="translate(-229.716 -353.633)" fill="#fddc7e"/></g><g transform="translate(26.877 32.743)"><path d="M232.248,352.82s3.346,1.892,11.7,7.053,17.445-5.786,17.445-5.786c-11.587-.354-9.265-6.715-19.836-4.891S232.248,352.82,232.248,352.82Zm18.252,2.718a3.8,3.8,0,0,0,4.347,1.268c-4.21,4.256-5.177.956-9.059-1.523C241.886,352.8,246.465,350.273,250.5,355.537Z" transform="translate(-232.201 -348.868)" fill="#fddc7e"/></g><g transform="translate(4.291 11.244)"><path d="M226.956,402.879l-.689-1.66c.068-.03,7.156-3.182,15.428-18.427a97.935,97.935,0,0,0,5.181-11.766c4.225-10.9,8.214-21.2,26.356-27.806l.617,1.69c-17.377,6.33-21.046,15.8-25.294,26.767a100.384,100.384,0,0,1-5.28,11.975C234.645,399.556,227.268,402.753,226.956,402.879Z" transform="translate(-226.267 -343.22)" fill="#fddc7e"/></g></g><g transform="translate(0 47.502)"><path d="M242.809,654.857c-45.32,0-90-32.9-104.876-78.966-16.543-51.22,2.527-125.34,52.807-147.871,5.325-2.387,10.963-4.454,16.417-6.456,14.43-5.291,29.356-10.765,40.029-22.694,7.518-8.4,12.634-18.755,17.575-28.77,2.212-4.476,4.492-9.1,6.966-13.505C278.8,344.008,290.9,328.473,308.4,325.98c15.184-2.154,31.91,6.391,44.757,22.885,5.3,6.8,9.756,14.358,14.065,21.666,4.4,7.457,8.953,15.173,14.392,22.062,12.756,16.159,29.26,24.365,44.14,21.956,16.927-2.744,30.182-17.689,40.524-45.689l.788-2.132c7.164-19.443,15.283-41.487,34.205-50.523,15.8-7.548,33.908-3.787,52.625,1.093,17.289,4.511,35.633,11.29,40.6,27.387,4.948,16.025-7.259,32.793-21.259,40.433-9.87,5.386-21.031,7.978-31.822,10.483-4.922,1.142-10.015,2.322-14.914,3.753-13.623,3.978-31.1,12.143-36.984,28.45-6.768,18.743,5.82,39.112,21.1,48.765,16.779,10.594,38.194,12.866,55.4,14.693,19.261,2.048,39.184,4.164,55.948,14.324,24.872,15.07,37.951,47.543,31.1,77.215-6.521,28.229-29.729,52.073-59.13,60.748-36.066,10.643-74.957-1.565-108.572-13.837l-4.355-1.595c-33.543-12.284-68.235-24.986-103.217-19.668-21.312,3.236-41.2,13.113-60.424,22.66-20.186,10.026-41.061,20.4-63.633,23.1A92.347,92.347,0,0,1,242.809,654.857Zm70.3-328.306a32.733,32.733,0,0,0-4.575.32c-17.141,2.444-29.047,17.754-36.017,30.166-2.463,4.385-4.743,9-6.947,13.464-4.967,10.068-10.11,20.479-17.712,28.971-10.826,12.1-25.854,17.609-40.391,22.942-5.439,1.991-11.062,4.054-16.356,6.429-49.857,22.34-68.745,95.916-52.32,146.771,15.945,49.378,66.389,83.514,114.849,77.7,22.416-2.687,43.219-13.018,63.34-23.01,19.288-9.581,39.233-19.485,60.687-22.744,35.229-5.352,70.017,7.392,103.67,19.714l4.347,1.591c33.482,12.223,72.205,24.384,108.005,13.825,29.1-8.587,52.065-32.172,58.513-60.089,6.76-29.306-6.147-61.368-30.692-76.244-16.6-10.057-36.413-12.162-55.582-14.194-17.3-1.839-38.834-4.126-55.784-14.834-15.58-9.836-28.4-30.642-21.469-49.831,6.014-16.657,23.76-24.967,37.585-29.005,4.918-1.439,10.022-2.623,14.956-3.768,10.734-2.49,21.83-5.067,31.594-10.4,13.692-7.465,25.644-23.806,20.833-39.374-4.842-15.675-22.923-22.336-39.972-26.782-18.542-4.834-36.485-8.561-52.008-1.153-18.591,8.88-26.645,30.741-33.748,50.025l-.788,2.132c-10.464,28.332-23.95,43.466-41.224,46.268-15.234,2.478-32.032-5.866-44.993-22.287-5.478-6.939-10.042-14.678-14.461-22.165-4.294-7.282-8.736-14.811-14-21.571C341.089,334.834,326.685,326.551,313.107,326.551Z" transform="translate(-132.113 -311.922)" fill="#feedbe"/></g><path d="M255.039,346.214c-10.483,4.575-19.177,15.378-17.476,26.687,1.1,7.3,6.323,13.509,12.679,17.266s13.753,5.344,21.077,6.239c5.957.727,12.257.982,17.681-1.572,4.773-2.246,8.321-6.4,11.713-10.434l23.554-27.989c3.418-4.065,7.053-8.827,6.319-14.084-.887-6.349-7.754-10.072-14.076-11.138-11.412-1.926-20.056,1.9-29.443,7.541C277.551,344.456,265.3,341.734,255.039,346.214Z" transform="translate(163.232 -211.759)" fill="#f2f2f2" fill-rule="evenodd"/><path d="M237.47,401.3c6.243,8.142,15.287,14.7,25.507,15.6s21.316-5.074,24.141-14.937c2-6.981-.206-14.377-.746-21.621a47.766,47.766,0,0,1,19.15-41.365c4.442-3.232,9.44-5.675,13.646-9.208s7.67-8.561,7.457-14.05c-.323-8.226-8.66-13.993-16.733-15.607a37.547,37.547,0,0,0-35.633,12.74c-5.173,6.3-8.138,14.187-13.315,20.49a37.423,37.423,0,0,1-35.263,12.71c-8.172-1.58-15.7-5.915-23.969-6.848S183.4,342.7,182.7,350.992c-.411,4.933,2.737,9.611,6.814,12.417s8.979,4.084,13.772,5.318c7.72,1.991,17.776,2.109,21.819,9.09C229.595,385.566,232.16,393.876,237.47,401.3Z" transform="translate(9.764 -299.443)" fill="#f2f2f2" fill-rule="evenodd"/><path d="M613.059,490.584c-17.259-8.173-37.083-8.3-56.18-8.367s-38.956-.388-56.062-8.881-30.482-27.707-25.869-46.237c3.886-15.607,18.8-25.9,33.7-31.967s31.1-9.535,44.349-18.644S575.92,350,569.627,335.2c-6.543-15.39-25.755-19.977-42.282-22.519-17.388-2.676-36.447-4.987-51.464,4.179-18.142,11.073-23.547,34.361-28.834,54.951s-14.956,43.725-35.48,49.256c-16.585,4.469-34.015-4.891-45.979-17.213s-20.467-27.658-32.351-40.056-29.142-21.971-45.811-17.818c-15.679,3.9-26.181,18.674-32.61,33.5s-10.38,30.985-19.87,44.064c-11.933,16.452-30.014,24.419-48.411,31.384-16.17,6.129-21.549,12.029-29.462,27.064-20.646,39.222-30.033,83.7-11.45,125.9,20,45.423,72.666,75.844,121.084,64.927,42.625-9.611,74.832-46.5,117.137-57.44,35.389-9.155,72.521,1.054,107.96,10.011s73.869,16.52,107.686,2.642c26.9-11.035,48.034-36.4,51.639-65.243S639.332,503.031,613.059,490.584ZM284.567,608.825c-6.045,12.512-15.313,24.925-30.25,30.935-18.644,7.5-42.7,2.676-57.406-9.2s-20.749-29.47-19.508-46.2c.582-7.891,2.646-15.74,2.071-23.631-.723-10.011-5.63-19.47-8.881-29.154s-4.712-20.479,1.07-29.367c6.395-9.821,20.7-15.161,34.5-15.31s27.1,4.142,39.108,9.6a167.676,167.676,0,0,1,31.6,18.736c5.409,4.081,11.168,7.761,13.662,13.513,3.551,8.192,4.412,17.78,4.891,26.387A109.372,109.372,0,0,1,284.567,608.825Zm306.1-22.055a40.66,40.66,0,0,1-17.936,13.818,36.46,36.46,0,0,1-38.666-9.2c-8.793-9.554-12.394-23.882-23.44-30.711-12.561-7.769-29.055-2.5-43.424-5.9A37.2,37.2,0,0,1,441.5,531.645c-5.162-14.168,2.269-24.514,4.636-38,1.37-7.815-.674-17.152,5.23-23.417,9.139-9.706,22.968-4.5,30.718,3.86,5.306,5.729,9.246,12.664,14.918,18.031,21.141,20.007,57.276,11.6,81.7,27.437A46.725,46.725,0,0,1,590.67,586.77Z" transform="translate(-122.229 -268.98)" fill="#f2f2f2" fill-rule="evenodd"/><g transform="translate(200.358 207.219)"><path d="M243.974,514.767a33.554,33.554,0,0,0,14.769-23.76c.837-6.966-.426-14.583,3.243-20.563,4.457-7.259,14.035-8.892,22.268-11.077s17.54-7.655,17.152-16.166c-.514-11.3-16.912-14.887-21.073-25.4-2.535-6.414.2-13.684,3.791-19.569s8.142-11.442,9.63-18.172a21.62,21.62,0,0,0-34.175-21.9c-14.152,10.738-11.4,34.94-25.439,45.822-8.416,6.524-21.739,7.194-26.562,16.688-6.132,12.074,7.385,26.729,3.076,39.569-2.767,8.249-11.731,12.405-17.727,18.709a31.294,31.294,0,0,0-4.385,36.01c6.89,12.1,15.428,9.771,26.524,6.577C224.965,518.683,234.8,520.747,243.974,514.767Z" transform="translate(-184.749 -353.881)" fill="#c3c8d8"/><path d="M274.726,418.329a67.377,67.377,0,0,0-40.383,8.953c1.119-3.589,2.212-7.171,3.285-10.715l11.142-36.744a1.039,1.039,0,0,0,.1-.027l19.428-10.8a.709.709,0,0,0-.693-1.237l-18.256,10.156,4.769-15.736a.708.708,0,0,0-.472-.883.715.715,0,0,0-.879.472L236.277,416.16c-2.4,7.906-4.884,15.968-7.659,23.954a54.144,54.144,0,0,0-18.29-32.2.714.714,0,0,0-1,.087.706.706,0,0,0,.084.994A52.721,52.721,0,0,1,227.32,440.81a.7.7,0,0,0,.719.6l.084-.008c.023,0,.034-.03.057-.034-1.568,4.457-3.209,8.9-5.044,13.25A193.66,193.66,0,0,1,203.119,490.5a20.614,20.614,0,0,0-13.909-21.491.7.7,0,0,0-.9.442.713.713,0,0,0,.445.9,19.655,19.655,0,0,1,10.19,8.119,19.423,19.423,0,0,1,2.733,12.74.668.668,0,0,0,.464.708,193.4,193.4,0,0,1-12.5,15.9.709.709,0,0,0,.061,1,.711.711,0,0,0,1-.057,194.89,194.89,0,0,0,22.321-31.107.612.612,0,0,0,.183-.046,64.433,64.433,0,0,1,23.193-6.966.706.706,0,0,0,.632-.773.721.721,0,0,0-.777-.632,65.926,65.926,0,0,0-22.04,6.342,196.3,196.3,0,0,0,10.22-20.407c3.586-8.5,6.547-17.266,9.3-25.991a.711.711,0,0,0,.247-.072,65.908,65.908,0,0,1,40.6-9.364.68.68,0,0,0,.777-.636A.711.711,0,0,0,274.726,418.329Z" transform="translate(-174.855 -333.162)" fill="#fff"/><g transform="translate(27.609 122.147)"><path d="M217.749,452.591a19.438,19.438,0,0,0,15.165-5.744c2.836-2.912,4.937-6.863,8.732-8.325,4.606-1.774,9.592.845,14.152,2.737s10.772,2.649,13.589-1.4c3.742-5.386-2.547-12.809-.761-19.116,1.089-3.848,4.91-6.231,8.637-7.678s7.777-2.4,10.829-4.979a12.53,12.53,0,0,0-8.028-22.112c-10.3-.038-17.548,12.074-27.844,12.143-6.17.042-12.542-4.339-18.107-1.663-7.072,3.4-6.007,14.906-12.512,19.3-4.176,2.824-9.767,1.583-14.746,2.375a18.142,18.142,0,0,0-14.7,15.036c-1.089,8,3.666,9.931,9.9,12.367C207.616,447.7,211.419,452.115,217.749,452.591Z" transform="translate(-192.002 -385.97)" fill="#feedbe"/><path d="M263.04,423.029a39.068,39.068,0,0,0-21.746-10.095q2.666-1.884,5.287-3.776l18.062-13a.178.178,0,0,0,.057.023l12.748,1.865a.409.409,0,0,0,.464-.346.42.42,0,0,0-.346-.468l-11.983-1.747,7.739-5.569a.408.408,0,0,0,.091-.571.413.413,0,0,0-.571-.091L246.1,408.5c-3.886,2.794-7.872,5.634-11.96,8.332a31.365,31.365,0,0,0,2.912-21.263.411.411,0,0,0-.8.175,30.532,30.532,0,0,1-2.954,20.951.415.415,0,0,0,.122.533l.042.023.038,0c-2.291,1.5-4.61,2.969-6.985,4.328a112.31,112.31,0,0,1-21.853,9.478,11.943,11.943,0,0,0,1.161-14.792.4.4,0,0,0-.567-.114.41.41,0,0,0-.11.567,11.413,11.413,0,0,1,1.831,7.328,11.259,11.259,0,0,1-3.224,6.829.391.391,0,0,0-.038.491,111.981,111.981,0,0,1-11.351,2.92.407.407,0,0,0-.156.735.382.382,0,0,0,.316.068,112.535,112.535,0,0,0,21.229-6.464.387.387,0,0,0,.1.042,37.445,37.445,0,0,1,13.132,4.956.409.409,0,0,0,.563-.133.416.416,0,0,0-.137-.563,38.194,38.194,0,0,0-12.379-4.838,113.1,113.1,0,0,0,11.888-5.8c4.644-2.649,9.094-5.645,13.433-8.694a.371.371,0,0,0,.141.053,38.21,38.21,0,0,1,21.99,9.981.393.393,0,0,0,.582-.019A.409.409,0,0,0,263.04,423.029Z" transform="translate(-191.923 -376.966)" fill="#fff"/></g></g></g><g transform="translate(131.192 346.405)"><g transform="translate(44.206 57.555)"><path d="M222.856,513.456c-5.759,2.272-11.343,1.884-12.443-.963l-24.43-61.8-1.564-3.947-15.15-38.229-9.242-23.361-16.642-42.1a2.846,2.846,0,0,1-.213-1.1,3.79,3.79,0,0,1,.426-1.565,2.757,2.757,0,0,1,.285-.571,9.9,9.9,0,0,1,2.345-2.665.185.185,0,0,1,.141-.106,8.474,8.474,0,0,1,.891-.712,13.367,13.367,0,0,1,1.172-.784,16.385,16.385,0,0,1,1.6-.887c.567-.285,1.172-.571,1.812-.818a8.911,8.911,0,0,1,.925-.32c4.766-1.709,9.174-1.53,10.951.286a2.755,2.755,0,0,1,.64.959l34.921,88.291,5.439,13.76,26.634,67.386C232.46,507.02,228.653,511.142,222.856,513.456Z" transform="translate(-141.778 -311.626)" fill="#abbfda"/><path d="M143.2,335.53l-.023-.666a2.957,2.957,0,0,0,.2,1.111Z" transform="translate(-141.77 -304.55)" fill="#feedbe"/><path d="M164.749,349.088c-1.778-1.816-6.186-1.995-10.951-.286a8.9,8.9,0,0,0-.925.32c-.64.247-1.245.533-1.812.818a16.392,16.392,0,0,0-1.6.887,13.367,13.367,0,0,0-1.172.784,8.47,8.47,0,0,0-.891.712.186.186,0,0,0-.141.106,9.9,9.9,0,0,0-2.345,2.665,2.759,2.759,0,0,0-.285.571,3.79,3.79,0,0,0-.426,1.565l-.358-6.863-1.032-21.229a2.127,2.127,0,0,1,3.734-1.5l10.03,11.808Z" transform="translate(-142.805 -326.9)" fill="#5877b6"/><path d="M149.21,333.688a2.755,2.755,0,0,0-.64-.959l.464.495Z" transform="translate(-126.626 -310.542)" fill="#feedbe"/><rect width="4.723" height="37.06" rx="0.62" transform="translate(55.538 143.578) rotate(-21.578)" fill="#fcca3d"/><path d="M199.632,467.283c-2.878,2.17-6.791.426-9.847-1.85a11.36,11.36,0,0,1-1.283-.921c-1.028-.818-2.025-1.675-3.057-2.489L170.3,423.794l-9.242-23.361a22.189,22.189,0,0,0,8.249-7,19.6,19.6,0,0,0,1.671-2.881,23.327,23.327,0,0,0-2.383-23.931c-3.768-4.838-9.246-7.86-14.826-10.738-2.17-1.138-4.374-2.242-6.509-3.449-1.172-.678-2.311-1.351-3.414-2.063l-1.032-21.229a2.127,2.127,0,0,1,3.734-1.5l10.03,11.808,8.176,9.638.464.495.175.464,34.921,88.291c.461,6.33.959,12.622,1.458,18.987.034.43.072.891.107,1.317C202.087,461.737,202.121,465.4,199.632,467.283Z" transform="translate(-142.805 -326.9)" opacity="0.5" fill="url(#a)" style="mix-blend-mode:overlay;isolation:isolate"/><path d="M197.817,442.846c-.213.32-.461.678-.674,1a41.3,41.3,0,0,1-3.308,4.229c-3.308,3.734-7.362,6.863-11.983,8.108a12.014,12.014,0,0,1-2.775.537l-1.564-3.947-15.15-38.229a23.347,23.347,0,0,0,1.743-2.025c4.945-6.471,4.979-15.648,2.383-23.4a52.772,52.772,0,0,0-3.449-7.822c-2.489-4.659-5.546-9.067-8.393-13.547-4.122-6.509-7.929-13.513-8.816-21.122-.072-.464-.107-.925-.145-1.389a31.132,31.132,0,0,1,.179-5.687,29.845,29.845,0,0,1,2.775-9.353l8.176,9.638.464.495.175.464,34.921,88.291Z" transform="translate(-134.874 -317.648)" opacity="0.5" fill="url(#b)" style="mix-blend-mode:overlay;isolation:isolate"/></g><g transform="translate(111.728 18.686)"><path d="M171.081,514.848c-6.151-.712-10.887-3.692-10.517-6.722l7.647-66.012.483-4.217,4.7-40.851,2.881-24.959,5.207-44.97a2.934,2.934,0,0,1,.331-1.073,3.819,3.819,0,0,1,1.115-1.176,2.775,2.775,0,0,1,.522-.369,9.95,9.95,0,0,1,3.327-1.241.184.184,0,0,1,.175-.027,8.564,8.564,0,0,1,1.119-.209c.449-.08.944-.1,1.4-.133a17.077,17.077,0,0,1,1.831-.03c.636.019,1.3.053,1.983.137a8.709,8.709,0,0,1,.967.156c5.006.742,8.808,2.981,9.52,5.421a2.829,2.829,0,0,1,.11,1.15L192.98,424.037l-1.7,14.7-8.34,71.973C182.584,513.71,177.282,515.549,171.081,514.848Z" transform="translate(-160.544 -299.408)" fill="#feedbe"/><path d="M166.1,324.283l.289-.6a2.98,2.98,0,0,0-.346,1.073Z" transform="translate(-145.107 -297.054)" fill="#feedbe"/><path d="M188.094,345.851c-.712-2.44-4.514-4.678-9.52-5.421a8.7,8.7,0,0,0-.967-.156c-.681-.084-1.347-.118-1.983-.137a17.077,17.077,0,0,0-1.831.03c-.461.034-.955.053-1.4.133a8.564,8.564,0,0,0-1.119.209.184.184,0,0,0-.175.027,9.951,9.951,0,0,0-3.327,1.241,2.776,2.776,0,0,0-.522.369,3.819,3.819,0,0,0-1.115,1.176l2.927-6.216,9.117-19.2a2.126,2.126,0,0,1,4,.445l3.262,15.142Z" transform="translate(-144.863 -316.689)" fill="#fddc7e"/><path d="M172.011,325.5a2.828,2.828,0,0,0-.11-1.15l.171.658Z" transform="translate(-128.67 -295.188)" fill="#feedbe"/><rect width="4.723" height="37.06" rx="0.62" transform="translate(15.528 152.033) rotate(6.597)" fill="#fcca3d"/><path d="M172.707,466.513c-3.563.552-6.189-2.828-7.811-6.281a11.55,11.55,0,0,1-.689-1.42c-.525-1.207-1-2.429-1.523-3.635l4.7-40.851,2.881-24.959a22.127,22.127,0,0,0,10.578-2.28,19.235,19.235,0,0,0,2.832-1.747,23.331,23.331,0,0,0,9.2-22.222c-1.039-6.041-4.438-11.294-8-16.467-1.374-2.029-2.8-4.039-4.107-6.113-.716-1.15-1.4-2.284-2.036-3.43l9.117-19.2a2.126,2.126,0,0,1,4,.445L195.1,333.5l2.661,12.356.171.658-.061.491L186.97,441.318c-2.581,5.8-5.116,11.579-7.682,17.426-.171.392-.358.818-.525,1.21C177.488,462.783,175.791,466.03,172.707,466.513Z" transform="translate(-154.534 -316.689)" opacity="0.5" fill="url(#c)" style="mix-blend-mode:overlay;isolation:isolate"/><path d="M185.625,443.627c-.339.179-.727.377-1.066.556a40.694,40.694,0,0,1-4.914,2.17c-4.678,1.732-9.729,2.573-14.392,1.488a11.986,11.986,0,0,1-2.7-.837l.483-4.217,4.7-40.851a23.4,23.4,0,0,0,2.493-.963c7.411-3.372,11.774-11.442,13.148-19.5a52.719,52.719,0,0,0,.651-8.523c.008-5.284-.609-10.613-1-15.907-.563-7.682-.609-15.656,2.2-22.782.156-.442.343-.868.529-1.29a30.884,30.884,0,0,1,2.843-4.93,29.878,29.878,0,0,1,6.859-6.935l2.661,12.356.171.658-.061.491-10.906,94.317Z" transform="translate(-154.891 -304.298)" opacity="0.5" fill="url(#d)" style="mix-blend-mode:overlay;isolation:isolate"/></g><g transform="translate(89.823)"><path d="M202.461,507.669c-6.075,1.2-11.5-.183-12.07-3.178l-12.942-65.182-.83-4.164-8.043-40.326-4.9-24.639-8.816-44.407a2.931,2.931,0,0,1-.011-1.123,3.873,3.873,0,0,1,.7-1.462,2.933,2.933,0,0,1,.384-.51,9.925,9.925,0,0,1,2.786-2.2.185.185,0,0,1,.16-.08,8.412,8.412,0,0,1,1-.541,13.128,13.128,0,0,1,1.294-.56,17.5,17.5,0,0,1,1.736-.586c.609-.179,1.256-.35,1.93-.48a9.743,9.743,0,0,1,.967-.148c4.994-.826,9.3.141,10.723,2.246a2.834,2.834,0,0,1,.457,1.058l18.507,93.126,2.881,14.514L212.48,500.1C213.062,503.059,208.578,506.435,202.461,507.669Z" transform="translate(-154.766 -294.916)" fill="#feedbe"/><path d="M154.789,320.246l.1-.658a2.973,2.973,0,0,0,0,1.13Z" transform="translate(-154.789 -289.867)" fill="#feedbe"/><path d="M176.492,337.192c-1.424-2.1-5.729-3.072-10.723-2.246a9.733,9.733,0,0,0-.967.148c-.674.129-1.321.3-1.93.48a17.508,17.508,0,0,0-1.736.586,13.126,13.126,0,0,0-1.294.56,8.417,8.417,0,0,0-1,.541.185.185,0,0,0-.16.08,9.924,9.924,0,0,0-2.786,2.2,2.931,2.931,0,0,0-.384.51,3.873,3.873,0,0,0-.7,1.462l.883-6.814,2.794-21.069a2.127,2.127,0,0,1,3.944-.8l7.746,13.414Z" transform="translate(-154.73 -311.78)" fill="#fddc7e"/><path d="M160.963,319.514a2.834,2.834,0,0,0-.457-1.058l.365.571Z" transform="translate(-138.744 -293.044)" fill="#feedbe"/><rect width="4.723" height="37.06" rx="0.62" transform="matrix(0.981, -0.195, 0.195, 0.981, 33.024, 150.862)" fill="#fcca3d"/><path d="M188.946,459.731c-3.224,1.618-6.76-.8-9.36-3.586A11.778,11.778,0,0,1,178.494,455c-.868-.99-1.694-2.006-2.562-3l-8.043-40.326-4.9-24.639a22.177,22.177,0,0,0,9.375-5.413,19.329,19.329,0,0,0,2.158-2.531,23.33,23.33,0,0,0,1.953-23.973c-2.84-5.432-7.685-9.387-12.66-13.224-1.93-1.507-3.9-2.988-5.782-4.56C157,336.465,156,335.6,155.042,334.7l2.794-21.069a2.127,2.127,0,0,1,3.944-.8l7.746,13.414,6.315,10.948.365.571.091.487L194.8,431.376c-.681,6.311-1.321,12.592-1.976,18.941-.042.426-.088.887-.129,1.313C192.353,454.714,191.733,458.323,188.946,459.731Z" transform="translate(-154.079 -311.78)" opacity="0.5" fill="url(#e)" style="mix-blend-mode:overlay;isolation:isolate"/><path d="M191.266,435.226c-.266.278-.575.582-.841.86a41.108,41.108,0,0,1-4.016,3.566c-3.921,3.08-8.473,5.432-13.243,5.828a12.07,12.07,0,0,1-2.824.027l-.83-4.164-8.043-40.326a23.023,23.023,0,0,0,2.078-1.679c6.026-5.481,7.7-14.5,6.543-22.592a52.228,52.228,0,0,0-1.991-8.313c-1.61-5.032-3.829-9.916-5.824-14.834-2.889-7.145-5.375-14.716-4.884-22.363.015-.468.061-.929.11-1.389a30.961,30.961,0,0,1,1.2-5.565,29.731,29.731,0,0,1,4.408-8.7l6.315,10.948.365.571.091.487,18.507,93.126Z" transform="translate(-147.659 -301.115)" opacity="0.5" fill="url(#f)" style="mix-blend-mode:overlay;isolation:isolate"/></g><g transform="translate(15.115 174.887)"><path d="M276.271,494.281l-24.537,20.837a4.057,4.057,0,0,1-5.725-.464L182.4,439.734,161.662,415.3l-8.709-10.24-16.821-19.809a4.057,4.057,0,0,1,.464-5.725l15.074-12.8,9.459-8.035a4.06,4.06,0,0,1,5.725.461L215.748,416.8l34.883,41.072,26.1,30.722A4.019,4.019,0,0,1,276.271,494.281Z" transform="translate(-135.162 -357.724)" fill="#abbfda"/><rect width="3.18" height="11.63" transform="translate(14.001 24.899) rotate(49.663)" fill="#fff"/><rect width="3.18" height="5.815" transform="translate(14.181 34.094) rotate(49.663)" fill="#fff"/><rect width="3.18" height="5.815" transform="translate(18.793 39.526) rotate(49.663)" fill="#fff"/><rect width="3.18" height="5.815" transform="translate(23.405 44.957) rotate(49.663)" fill="#fff"/><rect width="3.18" height="5.815" transform="translate(28.017 50.388) rotate(49.663)" fill="#fff"/><rect width="3.18" height="11.63" transform="translate(37.19 52.206) rotate(49.663)" fill="#fff"/><rect width="3.18" height="5.815" transform="translate(37.37 61.402) rotate(49.663)" fill="#fff"/><rect width="3.18" height="5.815" transform="translate(41.982 66.833) rotate(49.663)" fill="#fff"/><rect width="3.18" height="5.815" transform="translate(46.594 72.264) rotate(49.663)" fill="#fff"/><rect width="3.18" height="5.815" transform="translate(51.206 77.696) rotate(49.663)" fill="#fff"/><rect width="3.18" height="11.63" transform="translate(60.379 79.514) rotate(49.663)" fill="#fff"/><rect width="3.18" height="5.815" transform="translate(60.558 88.709) rotate(49.663)" fill="#fff"/><rect width="3.18" height="5.815" transform="translate(65.171 94.14) rotate(49.663)" fill="#fff"/><rect width="3.18" height="5.815" transform="translate(69.783 99.572) rotate(49.663)" fill="#fff"/><rect width="3.18" height="5.815" transform="translate(74.395 105.003) rotate(49.663)" fill="#fff"/><rect width="3.18" height="11.63" transform="translate(83.568 106.821) rotate(49.663)" fill="#fff"/><rect width="3.18" height="5.815" transform="translate(83.747 116.017) rotate(49.663)" fill="#fff"/><rect width="3.18" height="5.815" transform="translate(88.359 121.448) rotate(49.663)" fill="#fff"/><rect width="3.18" height="5.815" transform="translate(92.972 126.879) rotate(49.663)" fill="#fff"/><rect width="3.18" height="5.815" transform="translate(97.584 132.311) rotate(49.663)" fill="#fff"/><rect width="3.18" height="11.63" transform="translate(106.756 134.129) rotate(49.663)" fill="#fff"/><rect width="3.18" height="5.815" transform="translate(106.936 143.324) rotate(49.663)" fill="#fff"/><rect width="3.18" height="5.815" transform="translate(111.548 148.755) rotate(49.663)" fill="#fff"/><path d="M250.631,457.868a29.708,29.708,0,0,1-6.791,2.025c-10.989,1.85-22.473-2.1-31.114-9.135-8.675-7.042-14.685-16.855-18.739-27.239-2.242-5.763-3.947-11.77-7.076-17.068-3.129-5.333-8-10.03-14.08-11.058-6.151-1.07-12.413,1.812-16.962,6.113a23.031,23.031,0,0,0-2.916,3.559l-16.821-19.809a4.057,4.057,0,0,1,.464-5.725l24.533-20.837a4.06,4.06,0,0,1,5.725.461Z" transform="translate(-135.162 -357.724)" opacity="0.5" fill="url(#g)" style="mix-blend-mode:overlay;isolation:isolate"/><path d="M203.577,416.8a12.476,12.476,0,0,0-1.6,0c-4.979.251-9.992,2.383-13.052,6.33-1.918,2.455-2.984,5.512-4.693,8.108a19.486,19.486,0,0,1-14.008,8.5L149.491,415.3c1.424-9,5.976-18.1,4.374-27.133-1.207-6.756-5.725-12.443-10.487-17.422-1.283-1.351-2.6-2.668-3.879-4.02l9.459-8.035a4.06,4.06,0,0,1,5.725.461Z" transform="translate(-122.992 -357.724)" opacity="0.5" fill="url(#g)" style="mix-blend-mode:overlay;isolation:isolate"/></g><g transform="translate(375.105 24.716)"><path d="M265.2,375.111a30.371,30.371,0,0,1-34.243-21.194A30.181,30.181,0,0,1,245.5,318.928a5.449,5.449,0,0,1,7.967,4.267c2.1,19.451,10.38,18.419,18.526,15.15.959-.392,1.884-.784,2.809-1.21,6.684-2.95,12.729-5.972,14.434,1.386A30.143,30.143,0,0,1,265.2,375.111Z" transform="translate(-229.727 -318.273)" fill="#abbfda"/><circle cx="3.87" cy="3.87" r="3.87" transform="translate(6.406 16.46)" fill="#fff"/><circle cx="5.397" cy="5.397" r="5.397" transform="translate(5.361 30.308)" fill="#fff"/><circle cx="6.273" cy="6.273" r="6.273" transform="translate(18.874 39.634)" fill="#fff"/><circle cx="8.038" cy="8.038" r="8.038" transform="translate(37.044 31.365)" fill="#fff"/><circle cx="3.597" cy="3.597" r="3.597" transform="translate(49.59 22.124)" fill="#fff"/><path d="M265.2,364.656a30.371,30.371,0,0,1-34.243-21.195,30.024,30.024,0,0,1,1.5-20.977,10.161,10.161,0,0,1,2.311-.464c4.088-.282,7.895,2.2,10.7,5.192s4.979,6.509,7.963,9.318,7.183,4.834,11.168,3.768c4.161-1.1,6.863-5.371,7.43-9.672A11.821,11.821,0,0,0,272,327.89c7.716-3.095,15.291-8.214,17.243.175A30.143,30.143,0,0,1,265.2,364.656Z" transform="translate(-229.735 -307.818)" opacity="0.5" fill="url(#g)" style="mix-blend-mode:overlay;isolation:isolate"/><path d="M265.2,363.562a30.371,30.371,0,0,1-34.243-21.194,29.954,29.954,0,0,1-1.172-9.92c4.48-.32,9,2.349,12.516,5.371,4.126,3.555,7.826,7.891,12.908,9.847,7.434,2.809,16.749-.959,20.091-8.176a15.82,15.82,0,0,0,.537-11.343,13.453,13.453,0,0,0-1.032-2.562c6.684-2.95,12.729-5.972,14.434,1.386A30.143,30.143,0,0,1,265.2,363.562Z" transform="translate(-229.727 -306.724)" opacity="0.5" fill="url(#g)" style="mix-blend-mode:overlay;isolation:isolate"/></g><g transform="translate(288.906 89.065)"><ellipse cx="71.046" cy="8.833" rx="71.046" ry="8.833" transform="translate(1.271 287.694)" opacity="0.1"/><g transform="translate(121.9 121.199)"><g transform="translate(0 166.496)"><path d="M250.888,419.243c-.8.67-3.175,1.134-5.28,1.271-2.6.133-4.808-.2-3.373-1.237a4.99,4.99,0,0,0,2.037-3.54,8.4,8.4,0,0,0-.2-3.14.265.265,0,0,1-.034-.1l1.736-.6,3.14-1.134a11.972,11.972,0,0,0-.1,2.337,8.772,8.772,0,0,0,.567,3.106,5.141,5.141,0,0,0,1.271,1.8c.03.068.1.1.167.168C251.322,418.577,251.258,418.908,250.888,419.243Z" transform="translate(-231.625 -410.758)" fill="#feedbe" fill-rule="evenodd"/><path d="M258.378,415.648a3.681,3.681,0,0,1-.369,2.071,20.125,20.125,0,0,1-5.074,1c-5.649.468-12.9-.232-13.8-1.435-.335-1.77,3.274-2.406,7.149-3.407.167-.034.335-.1.5-.133.6-.167,1.2-.335,1.835-.567.167-.034.335-.1.5-.133a21.171,21.171,0,0,0,2.337-1l.3.1c.537.164,1,.331,1.439.464a4.773,4.773,0,0,0,3.673,0l.5-.2a19.149,19.149,0,0,1,.769,2A9.224,9.224,0,0,1,258.378,415.648Z" transform="translate(-239.114 -407.163)" fill="#044691" fill-rule="evenodd"/></g><path d="M252.482,534.816a4.89,4.89,0,0,1-1.8,1.035,5.65,5.65,0,0,1-3.072.1,7.824,7.824,0,0,1-1.671-.6,8.414,8.414,0,0,1-1.74-.971s-2.6-70.119-3-121.031c-.2-20.475,0-37.882.868-46.332l25.888,8.416C271.256,393.808,252.482,534.816,252.482,534.816Z" transform="translate(-233.485 -367.018)" fill="#032261" fill-rule="evenodd"/></g><path d="M253.5,482.114c-.068,6.113-.167,12.261-.236,18.374-.03.434-.03.868-.03,1.306,0,1-.034,2-.034,3,0,.8-.034,1.572-.034,2.375,0,.632-.034,1.3-.069,1.938a16.057,16.057,0,0,1-.164,1.8c-5.649.468-12.9-.232-13.8-1.435-.335-1.77,3.274-2.406,7.149-3.407.167-.034.335-.1.5-.133.6-.167,1.2-.335,1.835-.567.167-.034.335-.1.5-.133a21.165,21.165,0,0,0,2.337-1l.3.1a8.4,8.4,0,0,0-.2-3.14,8.415,8.415,0,0,1-1.74-.971s-2.6-70.119-3-121.031C254.434,412.7,254,447.642,253.5,482.114Z" transform="translate(-117.215 -211.659)" fill-rule="evenodd" opacity="0.5" fill="url(#g)" style="mix-blend-mode:overlay;isolation:isolate"/><g transform="translate(96.436 125.138)"><g transform="translate(0 168.068)"><path d="M244.385,420.158v.1c-.069.8-2.208,1.3-4.446,1.469-3.038.2-6.178-.168-4.476-1.3a4.812,4.812,0,0,0,2.1-3.407,8.086,8.086,0,0,0-.1-3.308l.065-.034,2.272-.7,2.573-.769s-.1.5-.167,1.268a10.724,10.724,0,0,0,.4,3.944,4.9,4.9,0,0,0,1.439,2.238A.908.908,0,0,1,244.385,420.158Z" transform="translate(-225.245 -412.206)" fill="#feedbe" fill-rule="evenodd"/><path d="M251.295,418.874a17.942,17.942,0,0,1-4.343,1.07c-5.71.834-13.528.5-14.5-.769-.6-2.508,7.48-3.076,12.158-5.714.034,0,.1.034.133.034.971.266,1.705.533,2.406.666a4.424,4.424,0,0,0,2.638-.266c.2-.1.434-.168.7-.3a12.706,12.706,0,0,1,1.07,3.042v.1A3.4,3.4,0,0,1,251.295,418.874Z" transform="translate(-232.425 -408.684)" fill="#044691" fill-rule="evenodd"/></g><path d="M245.41,536.121a7.116,7.116,0,0,1-2.238,1.268,5.766,5.766,0,0,1-2.337.5,5.58,5.58,0,0,1-2.341-.3,6.3,6.3,0,0,1-1.736-.9s-4.408-139.337-.5-168.635l11.427,4.21,15.333,5.679C265.79,396.449,245.41,536.121,245.41,536.121Z" transform="translate(-226.205 -368.053)" fill="#032261" fill-rule="evenodd"/></g><path d="M254.469,379.278a72.436,72.436,0,0,0-2.672,13.863c-1.271,11.758-2.307,23.52-3.175,35.313q-2.507,35.326-2.436,70.785,0,18.842.8,37.65c.034.335.034.666.069,1,0,.4,0,.8.034,1.2.03.8.065,1.671.065,2.5a31.853,31.853,0,0,1-.034,4.042,13.6,13.6,0,0,1-.168,1.74c-5.71.834-13.528.5-14.5-.769-.6-2.508,7.48-3.076,12.158-5.714.034,0,.1.034.133.034a8.086,8.086,0,0,0-.1-3.308l.065-.034a6.3,6.3,0,0,1-1.736-.9s-4.408-139.337-.5-168.635l11.427,4.21A8.649,8.649,0,0,1,254.469,379.278Z" transform="translate(-135.989 -242.915)" fill-rule="evenodd" opacity="0.5" fill="url(#l)" style="mix-blend-mode:overlay;isolation:isolate"/><path d="M296.642,362.024l-40.836,25.861-24.662-43.71-6.285,3.788c10.015,23.779,17.765,50.542,24.343,56.085,7.8,4.526,27.209-2.413,42.983-10.966Z" transform="translate(-157.222 -309.928)" fill="#fcca3d" fill-rule="evenodd"/><g transform="translate(20.283 16.626)"><path d="M271.129,433.794,255.18,415.843l-38.822-43.657.122-.122-1.755-15.332-.03-.247,7.788-7.788,6.745-6.776.183-.183,15.61,1.785.03-.03,41.593,36.976,20.015,17.8C312.323,403.928,276.793,439.458,271.129,433.794Z" transform="translate(-206.033 -333.393)" fill="#abbfda" fill-rule="evenodd"/><path d="M230.931,356.882c-3.631,3.787-8.188,7.08-9.821,6a.708.708,0,0,1-.187-.122l-7.788-7.792a2.47,2.47,0,0,1,0-3.479c-.955-.955-.091-3.079,1.572-5.234,2.832-3.757,7.94-7.666,9.634-5.972a2.416,2.416,0,0,1,3.479,0l7.792,7.788C236.934,349.4,234.318,353.372,230.931,356.882Z" transform="translate(-212.419 -339.546)" fill="#5877b6" fill-rule="evenodd"/><path d="M277.514,435l-15.949-17.951L222.743,373.39l.122-.122-1.755-15.332a.706.706,0,0,1-.187-.122l-7.788-7.792a2.47,2.47,0,0,1,0-3.479c-.955-.955-.091-3.079,1.572-5.234a27.942,27.942,0,0,1,9.326,4.526c.308.247.617.464.925.708a44.245,44.245,0,0,1,3.909,3.357,25.99,25.99,0,0,1,2.063,2.033,57.62,57.62,0,0,1,10.928,15.546c.217.43.4.864.586,1.325,4.556,9.946,7.206,21.491,15.919,27.955a22.366,22.366,0,0,0,15.116,4.065,21.287,21.287,0,0,0,18.69-15.15,19.617,19.617,0,0,0,.86-4l20.015,17.8C318.708,405.132,283.179,440.662,277.514,435Z" transform="translate(-212.419 -334.597)" fill-rule="evenodd" opacity="0.5" fill="url(#m)" style="mix-blend-mode:overlay;isolation:isolate"/><path d="M273.48,400.824a26.445,26.445,0,0,1-4.37,9.391,25.811,25.811,0,0,1-7.544,6.833L222.743,373.39l.122-.122-1.755-15.332a.706.706,0,0,1-.187-.122l-7.788-7.792a2.47,2.47,0,0,1,0-3.479c-.955-.955-.091-3.079,1.572-5.234a27.942,27.942,0,0,1,9.326,4.526,64.435,64.435,0,0,1,1.572,7.328c.522,3.079,1.229,6.1,3.019,8.622,2.984,4.279,8.34,6.159,13.483,6.958.126.031.217.031.339.061,5.051.738,10.22.769,15.055,2.371a24.91,24.91,0,0,1,15.732,16.5A26.042,26.042,0,0,1,273.48,400.824Z" transform="translate(-212.419 -334.597)" fill-rule="evenodd" opacity="0.5" fill="url(#n)" style="mix-blend-mode:overlay;isolation:isolate"/></g><path d="M289.63,428.517c-13.429,6.582-29.264,10.86-40.958,10.392-6.513-.27-11.758-1.972-14.564-5.614,3.841-14.229,2.17-29.866.933-45.1-.267-2.942-.5-5.847-.666-8.755-.533-8.785-.533-17.369,1.169-25.321a61.079,61.079,0,0,1,40.589-3.81C282.246,362.909,285.786,397.083,289.63,428.517Z" transform="translate(-131.395 -297.833)" fill="#fcca3d" fill-rule="evenodd"/><path d="M291.116,382.976a2.924,2.924,0,0,0-.369.331q-1.4,1.256-2.908,2.508c-12.828,10.788-28.126,20.11-36.044,17.67-7.682-3.875-21.347-28.16-36.546-49.039l5.245-5.112L254.5,386.249l33.84-34.51,1.873,21.012.6,6.715Z" transform="translate(-184.192 -295.449)" fill="#fcca3d" fill-rule="evenodd"/><path d="M222.636,355.819c1.6-3.776-.381-7.008-1.344-5.059-2.375,4.8-3.026-4.572-4.56-3.677s-4.473,10.788.651,13.859C222.636,359.149,222.636,355.819,222.636,355.819Z" transform="translate(-186.319 -301.938)" fill="#feedbe" fill-rule="evenodd"/><path d="M230.075,352.073c-4.058.624-6.7-2.09-4.575-2.543,5.238-1.123-3.692-4.054-2.448-5.325s11.781-2.661,13.5,3.06C233.527,351.917,230.075,352.073,230.075,352.073Z" transform="translate(-162.632 -313.019)" fill="#feedbe" fill-rule="evenodd"/><path d="M236.987,357.427c3.772,2.292,9.056,1.983,12.108-.662a15.8,15.8,0,0,1-2.95-10.67l-9.158.579C239.081,350.446,239.32,354.111,236.987,357.427Z" transform="translate(-123.185 -304.54)" fill="#feedbe" fill-rule="evenodd"/><path d="M238.8,363.529c2.383,3.095,9.661-.712,14.187-3.038l-3.277-19.2L235.042,346.3C235.563,352.311,235.773,359.486,238.8,363.529Z" transform="translate(-128.643 -318.022)" fill="#feedbe" fill-rule="evenodd"/><path d="M249.309,359.926a13.816,13.816,0,0,1,1.9,11.13c-.5,1.9-1.412,3.7-1.58,5.653a7.552,7.552,0,0,0,7.773,8.188c1.827-.061,3.6-.78,5.424-.639,3.43.267,5.87,3.4,9,4.815a9.5,9.5,0,0,0,11.861-13.856c-2.611-3.985-7.963-5.687-10.133-9.927-1.93-3.768-.758-8.294-.9-12.523-.137-4.123-1.72-8.344-4.926-10.94s-8.15-3.163-11.477-.727c-1.781,1.306-3.118.381-5.082,1.393-2.056,1.058-5.063-1.214-7.312-1.747-20.212-4.811-5.736,15.706-4.572,16.532C242.99,359.9,247.577,357.376,249.309,359.926Z" transform="translate(-133.847 -322.92)" fill-rule="evenodd"/><g transform="translate(0 25.676)"><path d="M222.4,349.405a8.764,8.764,0,0,1-3.727,1.111,25.534,25.534,0,0,1-7.48-.278c-1.511-.278-3.236-.925-3.848-2.25a1.3,1.3,0,0,1-.187-.491,3.209,3.209,0,0,1,.986-2.893,6.92,6.92,0,0,1,2.8-1.542c2.893-.955,8.005-1.816,10.928-.369a3.953,3.953,0,0,1,1.972,2.154h.03A3.691,3.691,0,0,1,222.4,349.405Z" transform="translate(-207.09 -341.923)" fill="#5877b6"/><path d="M222.211,347.3a8.764,8.764,0,0,1-3.727,1.111,25.535,25.535,0,0,1-7.48-.278c-1.511-.278-3.236-.925-3.848-2.25a7.467,7.467,0,0,1,1.816-.43c2.554-.247,5.234.647,7.605-.247,1.229-.461,2.246-1.385,3.449-1.938a6.418,6.418,0,0,1,3.631-.525h.03A3.691,3.691,0,0,1,222.211,347.3Z" transform="translate(-206.905 -339.817)" fill-rule="evenodd" opacity="0.5" fill="url(#o)" style="mix-blend-mode:overlay;isolation:isolate"/></g><g transform="translate(1.623 2.29)"><path d="M221.26,346.081c-4.374.586-9.3-1.724-12.314-4.83a3.918,3.918,0,0,1-1.416-2.927,2.242,2.242,0,0,1,.552-1.294,2.751,2.751,0,0,1,1.264-.952,5.2,5.2,0,0,1,2.984-.156c1.633.339,4.035,1.911,5.911,3.879C220.213,341.8,221.66,344.2,221.26,346.081Z" transform="translate(-207.516 -335.78)" fill="#5877b6"/><path d="M221.26,345.165c-4.374.586-9.3-1.724-12.314-4.83a3.918,3.918,0,0,1-1.416-2.927,2.242,2.242,0,0,1,.552-1.294c1.016-.091,1.846.8,2.524,1.6a9.932,9.932,0,0,0,3.049,2.619,3.992,3.992,0,0,0,3.14.213,2.547,2.547,0,0,0,1.446-1.663C220.213,340.886,221.66,343.288,221.26,345.165Z" transform="translate(-207.516 -334.863)" fill-rule="evenodd" opacity="0.5" fill="url(#p)" style="mix-blend-mode:overlay;isolation:isolate"/></g><g transform="translate(21.721)"><path d="M220.606,344.725c-.278,3.14-1.386,5.972-4.343,5.447-2.771-.521-3.6-3.418-3.449-6.4a14.309,14.309,0,0,1,1.572-6.311c.708-1.233,1.938-2.493,3.384-2.25,1.386.247,2.128,1.82,2.467,3.205A20.4,20.4,0,0,1,220.606,344.725Z" transform="translate(-212.796 -335.178)" fill="#5877b6"/><path d="M220.606,338.39c-.278,3.14-1.386,5.972-4.343,5.447-2.771-.521-3.6-3.418-3.449-6.4a2.005,2.005,0,0,1,.339.4c.247.461.4.986.647,1.447a3.671,3.671,0,0,0,4.435,1.325,4.667,4.667,0,0,0,1.937-1.507A7.7,7.7,0,0,0,220.606,338.39Z" transform="translate(-212.796 -328.844)" fill-rule="evenodd" opacity="0.5" fill="url(#q)" style="mix-blend-mode:overlay;isolation:isolate"/></g><path d="M301.47,432.756c-6.513-.27-11.758-1.972-14.564-5.614,3.841-14.229,2.17-29.866.933-45.1-12.828,10.788-28.126,20.11-36.044,17.67-7.682-3.875-21.347-28.16-36.546-49.039,28.027,30.7,32.937,46.4,44.163,42.892,8.686-2.707,21.278-12.394,27.761-20.277a30.887,30.887,0,0,0,3.041-4.309,10.55,10.55,0,0,0,.9-2s-.2,3.437-.3,8.717c-.034,1.2-.069,2.474-.069,3.841-.2,15.869.7,41.959,8.017,48.807C300.5,429.981,301.337,431.451,301.47,432.756Z" transform="translate(-184.192 -291.68)" fill-rule="evenodd" opacity="0.5" fill="url(#r)" style="mix-blend-mode:overlay;isolation:isolate"/></g><path d="M190.648,345.2l-50.99,205.054,110.512,11.211Z" transform="translate(-107.429 -217.988)" opacity="0.66" fill="url(#s)" style="mix-blend-mode:multiply;isolation:isolate"/><g transform="translate(72.728 63.348)"><path d="M288.881,378.419v37.193a19.43,19.43,0,0,1-6.471,14.438v10.1a53.575,53.575,0,0,1-53.588,53.584h-5.405a53.608,53.608,0,0,1-53.588-53.584v-10.1a19.43,19.43,0,0,1-6.471-14.438V378.419Z" transform="translate(-113.645 -188.106)" fill="#044691"/><path d="M284.11,378.419v37.193a19.43,19.43,0,0,1-6.471,14.438v10.1a53.575,53.575,0,0,1-53.588,53.584h-5.405a53.575,53.575,0,0,1-53.588-53.584v-9.71c11.237,7.114,19.1,20.235,31.293,26.314,14.438,7.149,33.139,2.417,44.056-9.421s14.366-29.443,10.951-45.2a68.694,68.694,0,0,0-10.418-23.714Z" transform="translate(-108.874 -188.106)" opacity="0.5" fill="url(#g)" style="mix-blend-mode:overlay;isolation:isolate"/><path d="M281.46,378.419v37.193a19.43,19.43,0,0,1-6.471,14.438v10.1A53.575,53.575,0,0,1,221.4,493.733H216A53.548,53.548,0,0,1,166,459.421a31.846,31.846,0,0,1,3.628-10.563,26.118,26.118,0,0,1,16.284-12.942c7.255-1.778,14.9.107,22.295-.891,13.513-1.812,24.715-14.507,24.856-28.161.141-13.547-9.1-22.081-20.163-27.844a8.958,8.958,0,0,1-.993-.6Z" transform="translate(-106.225 -188.106)" opacity="0.5" fill="url(#u)" style="mix-blend-mode:overlay;isolation:isolate"/><path d="M375.246,440.9a112.474,112.474,0,0,1-224.948.068V440.9a112.474,112.474,0,0,1,224.948,0Z" transform="translate(-150.298 -328.422)" fill="#fcca3d"/><path d="M375.246,424.641a112.474,112.474,0,0,1-224.948.068c15.291-5.58,33.71-2.771,49.678,2.489,19.984,6.616,39.576,16.57,60.664,16.57,28.872-.034,55.719-20.479,66.636-47.185,5.9-14.4,7.43-30.262,5.439-45.621-.712-5.55-1.991-11.13-3.022-16.749A112.41,112.41,0,0,1,375.246,424.641Z" transform="translate(-150.298 -312.167)" opacity="0.5" fill="url(#v)" style="mix-blend-mode:overlay;isolation:isolate"/><path d="M367.511,402.251a112.475,112.475,0,0,1-214.457,47.433,63.669,63.669,0,0,1,16.535-32.854c7.362-7.609,17.034-13.3,27.559-14.4,13.581-1.42,26.741,4.731,38.51,11.663,11.8,6.9,23.4,14.83,36.767,17.533,25.248,5.12,51.452-10.632,64.5-32.823a95.155,95.155,0,0,0,11.629-33.958c1.134-7.217.567-15.184,1.564-22.649A111.655,111.655,0,0,1,367.511,402.251Z" transform="translate(-142.563 -289.777)" opacity="0.5" fill="url(#w)" style="mix-blend-mode:overlay;isolation:isolate"/></g><g transform="translate(145.701 55.42)"><path d="M302.88,397.029a13.992,13.992,0,0,1-3.662,5.8,21.326,21.326,0,0,1-13.193,5.58c-7.183.464-14.187-1.953-20.905-4.549-3.947-1.53-7.967-3.129-12.162-3.095-4.2,0-8.713,2.063-10.312,5.938-1.957,4.8,1.138,10.278,4.975,13.761,3.129,2.843,6.829,5.12,9.638,8.214a16.575,16.575,0,0,1,1.85,2.311c4.195,6.364,2.843,15.862-3.129,20.624-5.938,4.766-15.683,3.947-20.589-1.884-4.518-5.405-4.553-13.228-7.468-19.664a5.316,5.316,0,0,0-.533-.994,13.2,13.2,0,0,0-6.509-6.509c-3.236-1.351-7.465-.567-9.421,2.349-1.53,2.276-1.458,5.333-2.737,7.75-2.741,5.192-9.992,5.337-15.824,4.8-5.337-.495-10.81-1.028-15.5-3.555a16.293,16.293,0,0,1-3.985-2.984,12.2,12.2,0,0,1-3.875-9.851c.784-6.471,7.575-10.6,14.012-11.663,6.437-1.031,13.121-.072,19.52-1.351,5.618-1.138,11.381-4.872,12.733-10.24.034-.038.034-.038.034-.072a8.873,8.873,0,0,0,.285-2.2c.107-6.935-6.829-11.663-13.087-14.685-6.258-2.988-13.475-6.582-14.971-13.338a10.733,10.733,0,0,1,.213-5.512,16.724,16.724,0,0,1,9.067-10.1c3.38-3.342,15.717-3.73,19.737-1.138,6.079,3.947,5.333,15.542,6.258,21.8q4.962-10.186,9.92-20.376c3.167-6.505,6.475-13.155,11.77-18.062a29.6,29.6,0,0,1,24.251-7.468c8.108,1.207,16.467,7.716,15.542,15.858a11.24,11.24,0,0,1-.64,2.668c-1.778,4.834-6.616,8.355-11.416,10.632-5.653,2.668-11.91,4.515-16.322,8.96s-5.725,12.8-.712,16.5c1.53-.678,3.095-1.317,4.625-1.956a67.03,67.03,0,0,1,15.359-4.625c6.97-1.028,14.472-.141,20.2,3.913C301.673,382.663,305.088,390.345,302.88,397.029Z" transform="translate(-169.469 -326.339)" fill="#5877b6"/><path d="M206.034,369.684c.034,5.013-2.2,10.346-6.722,12.481-3.449,1.637-7.5,1.138-11.237.32-3.555-.784-7.183-1.922-9.954-4.267s-4.587-6.224-3.593-9.707a7.239,7.239,0,0,1,.959-2.063c1.5-2.455,4.374-4.092,7.221-4.907,3.59-1,7.4-1.032,11.058-1.816,3.483-.746,6.4-4.16,9.387-1.526a1.523,1.523,0,0,1,.251.247C205.5,360.723,206,366.947,206.034,369.684Z" transform="translate(-156.042 -239.681)" fill="#5877b6"/><path d="M252.252,353.408a21.326,21.326,0,0,1-13.193,5.58c-7.183.464-14.187-1.953-20.905-4.549-3.947-1.53-7.967-3.129-12.162-3.095-4.2,0-8.713,2.063-10.312,5.938-1.957,4.8,1.138,10.278,4.975,13.761,3.129,2.843,6.829,5.12,9.638,8.214a99.634,99.634,0,0,1-16.037-8.428c-3.521-2.238-7.289-5.048-7.967-9.174-.6-3.982,2.029-7.895,5.443-9.992,3.449-2.1,7.537-2.775,11.484-3.414,6.829-1.1,13.654-2.17,20.483-3.27,4.48-.712,9.033-1.424,13.475-.784A22.7,22.7,0,0,1,252.252,353.408Z" transform="translate(-122.503 -276.921)" opacity="0.5" fill="url(#g)" style="mix-blend-mode:overlay;isolation:isolate"/><path d="M224.484,363.145a13.2,13.2,0,0,0-6.509-6.509c-3.236-1.351-7.465-.567-9.421,2.349-1.53,2.276-1.458,5.333-2.737,7.75-2.741,5.192-9.992,5.337-15.824,4.8-5.337-.495-10.81-1.028-15.5-3.555A16.293,16.293,0,0,1,170.5,365c3.452-.712,7.076-.426,10.67-.537,4.088-.107,8.428-.815,11.378-3.662,2.6-2.489,3.734-6.33,6.616-8.534,2.417-1.846,5.618-2.17,8.641-2.345,3.376-.179,6.863-.213,9.954,1.138a11.885,11.885,0,0,1,6.65,8.283A9.858,9.858,0,0,1,224.484,363.145Z" transform="translate(-166.563 -260.416)" opacity="0.5" fill="url(#g)" style="mix-blend-mode:overlay;isolation:isolate"/><path d="M229.13,332.426c-1.778,4.834-6.616,8.355-11.416,10.632-5.653,2.668-11.91,4.515-16.322,8.96s-5.725,12.8-.712,16.5c1.53-.678,3.095-1.317,4.625-1.956a9.413,9.413,0,0,1-4.693,2.025,9.12,9.12,0,0,1-7.008-2.665,14.587,14.587,0,0,1-3.768-6.688,22.091,22.091,0,0,1,7.042-22.47c4.941-4.092,11.518-5.763,17.955-5.87A69.174,69.174,0,0,1,229.13,332.426Z" transform="translate(-114.42 -313.58)" opacity="0.5" fill="url(#g)" style="mix-blend-mode:overlay;isolation:isolate"/><path d="M202.319,371.447a8.873,8.873,0,0,0,.285-2.2c.107-6.935-6.829-11.663-13.087-14.685-6.258-2.988-13.475-6.582-14.971-13.338a10.733,10.733,0,0,1,.213-5.512c2.349,2.029,3.806,4.945,6.045,7.076,4.054,3.841,10.1,4.625,14.758,7.682a17.358,17.358,0,0,1,7.255,10.205C203.53,363.553,203.811,368.318,202.319,371.447Z" transform="translate(-155.955 -300.045)" opacity="0.5" fill="url(#g)" style="mix-blend-mode:overlay;isolation:isolate"/><path d="M206.034,368.8c.034,5.013-2.2,10.346-6.722,12.481-3.449,1.637-7.5,1.138-11.237.32-3.555-.784-7.183-1.922-9.954-4.267s-4.587-6.224-3.593-9.707a7.239,7.239,0,0,1,.959-2.063,14.577,14.577,0,0,1,2.916,2.451,37.772,37.772,0,0,0,6.475,5.478,13.4,13.4,0,0,0,8.07,2.276,10.221,10.221,0,0,0,8.888-13.76c-.388-1.317-1.1-3.666.712-4.374a1.414,1.414,0,0,1,.856-.072C205.5,359.844,206,366.067,206.034,368.8Z" transform="translate(-156.042 -238.802)" opacity="0.5" fill="url(#g)" style="mix-blend-mode:overlay;isolation:isolate"/></g><g transform="translate(0 326.962)"><path d="M150.171,397.7l-.042,17.628v1.214l.011,8.972,67.063.076,33.455.069a7.811,7.811,0,0,0,5.58-2.341,7.684,7.684,0,0,0,2.25-5.436l0-12.242a7.808,7.808,0,0,0-7.78-7.83Z" transform="translate(-78.044 -397.597)" fill="#5877b6"/><path d="M131.334,402.944a1.754,1.754,0,0,0-.1.5l-.015.495-.027,15.371a4.105,4.105,0,0,0,.088.917,6.262,6.262,0,0,0,6.174,5.264l65.833.107-.011-8.972V415.41l.042-17.628-29.9-.053-11.846-.027-24.087-.027A6.236,6.236,0,0,0,131.334,402.944Z" transform="translate(-131.192 -397.676)" fill="#4e74a0"/><path d="M131.214,399.056l.02.512-.015.5-.027,15.369,0,.923.085,0,67.474.1-.013-2.94.016-2.633.017-11.727-21.744-.016-13.608-.028-32.087-.036Z" transform="translate(-131.191 -393.802)" fill="#fff"/><path d="M131.333,402.944l-.118-.015.019.514-.015.495-.027,15.371v.921l.088,0a6.262,6.262,0,0,0,6.174,5.264l65.833.107,67.063.076,33.455.069a7.811,7.811,0,0,0,5.58-2.341,22.045,22.045,0,0,0-1.976-3.784c-5.025-7.716-14-12.234-23.094-13.825-9.6-1.743-19.459-.62-29.124,1.385-2.036.422-4.035.86-6.014,1.348-11.48,2.779-22.949,6.273-34.765,7.1a60.194,60.194,0,0,1-6.989.072c-1.37-.034-2.756-.114-4.149-.282a43.818,43.818,0,0,1-4.518-.662A40.312,40.312,0,0,1,180.9,406.77a31.145,31.145,0,0,1-3.875-3.761,30.7,30.7,0,0,1-3.612-5.28l-11.846-.027-24.087-.027A6.236,6.236,0,0,0,131.333,402.944Z" transform="translate(-131.191 -397.676)" opacity="0.5" fill="url(#ac)" style="mix-blend-mode:overlay;isolation:isolate"/><path d="M131.333,402.944l-.118-.015.019.514-.015.495-.027,15.371v.921l.088,0a6.262,6.262,0,0,0,6.174,5.264l65.833.107,67.063.076a12.743,12.743,0,0,0,.266-8.386c-1.6-4.7-6.334-7.6-11.077-9.067a34.065,34.065,0,0,0-4.347-1.043c-8.416-1.5-17.27-.088-25.591,2.1-7.445,2-14.727,4.579-22.177,6.414-1.37.343-2.775.67-4.149.933-.986.225-1.987.4-2.973.544-.491.068-1.035.16-1.564.213-9.589,1.283-19.752.213-27.624-5.272a23.515,23.515,0,0,1-7.693-9.132,20.765,20.765,0,0,1-1.679-4.362,5.528,5.528,0,0,1-.171-.914l-24.087-.027A6.236,6.236,0,0,0,131.333,402.944Z" transform="translate(-131.191 -397.676)" opacity="0.5" fill="url(#ad)" style="mix-blend-mode:overlay;isolation:isolate"/></g><g transform="translate(32.307 355.568)"><path d="M248,405.219l.038,17.624,0,1.214-.011,8.976-67.063.076-33.455.068a7.813,7.813,0,0,1-5.584-2.341,7.667,7.667,0,0,1-2.246-5.439l0-12.238a7.8,7.8,0,0,1,7.777-7.83Z" transform="translate(-139.679 -405.112)" fill="#fcca3d"/><path d="M240.12,410.456a2.133,2.133,0,0,1,.1.5l.015.495.027,15.371a4.339,4.339,0,0,1-.088.917A6.268,6.268,0,0,1,234,433l-65.833.11.011-8.976,0-1.214-.038-17.624,29.9-.053,11.85-.03,24.084-.023A6.24,6.24,0,0,1,240.12,410.456Z" transform="translate(-59.818 -405.191)" fill="#f9be2b"/><path d="M236.888,406.571l-.02.512.015.5.027,15.369,0,.923-.085,0-67.474.1.013-2.94-.016-2.633-.017-11.727,21.744-.015,13.608-.028,32.087-.036Z" transform="translate(-56.467 -401.317)" fill="#fff"/><path d="M318.325,410.456l.118-.011-.019.514.015.495.027,15.371,0,.921-.084,0A6.268,6.268,0,0,1,312.2,433l-65.833.11-67.063.076-33.455.068a7.812,7.812,0,0,1-5.584-2.341,22.331,22.331,0,0,1,1.979-3.784c5.021-7.716,14-12.234,23.09-13.825,9.608-1.743,19.463-.62,29.127,1.386,2.033.422,4.035.86,6.014,1.347,11.48,2.775,22.949,6.269,34.765,7.1a59.362,59.362,0,0,0,6.989.068,41.388,41.388,0,0,0,4.145-.282,43.973,43.973,0,0,0,4.522-.658,40.313,40.313,0,0,0,17.852-7.978,29.541,29.541,0,0,0,7.484-9.04l11.85-.03,24.084-.023A6.24,6.24,0,0,1,318.325,410.456Z" transform="translate(-138.023 -405.191)" opacity="0.5" fill="url(#ae)" style="mix-blend-mode:overlay;isolation:isolate"/><path d="M290.175,410.456l.118-.011-.019.514.015.495.027,15.371,0,.921-.084,0A6.268,6.268,0,0,1,284.054,433l-65.833.11-67.063.076a12.719,12.719,0,0,1-.266-8.386c1.6-4.7,6.334-7.6,11.073-9.067a33.639,33.639,0,0,1,4.351-1.043c8.416-1.5,17.266-.091,25.591,2.1,7.442,2,14.727,4.579,22.177,6.41,1.37.346,2.775.674,4.149.933.982.228,1.983.4,2.969.544.495.072,1.039.164,1.564.217,9.592,1.283,19.752.213,27.627-5.272a23.58,23.58,0,0,0,7.693-9.132,20.755,20.755,0,0,0,1.675-4.362,5.509,5.509,0,0,0,.175-.917l24.084-.023A6.24,6.24,0,0,1,290.175,410.456Z" transform="translate(-109.873 -405.191)" opacity="0.5" fill="url(#af)" style="mix-blend-mode:overlay;isolation:isolate"/></g><rect width="40.471" height="28.605" transform="translate(31.623 354.883)" opacity="0.66" fill="url(#ag)" style="mix-blend-mode:multiply;isolation:isolate"/></g></g></svg>