<svg xmlns="http://www.w3.org/2000/svg" width="2256.636" height="1772.8" viewBox="0 0 2256.636 1772.8"><g transform="matrix(0.966, 0.259, -0.259, 0.966, 338.548, -65.79)"><g transform="translate(15.737 63.894)"><path d="M1762.518,1375.254c-55.134,0-109.809-11.282-158.621-34.515-77.328-36.759-120.468-91.3-158.547-139.4-76.69-96.884-132.093-166.909-406.076-24.407-214.395,111.54-411.079,1.01-510.9-157.976C435.905,871.7,411.544,656.751,576.608,532.814h0c70.441-52.887,127.491-66.086,173.318-76.684,62.632-14.493,100.427-23.247,116.5-126.761C883.37,220.4,999.638,108.384,1125.584,79.651c117.307-26.711,224.5,20.572,301.863,133.242,62.944,91.652,165.925,152.09,268.758,157.694,101.9,5.619,198.257-41.367,279.357-135.65,78.353-91.058,180.919-115.717,281.345-67.617,111.088,53.2,209.184,200.146,181.068,354-23,125.78-110.878,172.35-188.416,213.434-92.931,49.245-173.2,91.771-137.437,250.1,27.538,121.931-9.635,231-104.615,307.093C1939.295,1346.611,1850.327,1375.254,1762.518,1375.254Zm-480.776-285.778c84.231,0,123.883,50.107,169.234,107.408,37.59,47.491,80.179,101.314,155.994,137.375,124.225,59.1,287.092,39.39,396.055-47.907,92.724-74.291,128.991-180.792,102.091-299.913-36.95-163.684,49.524-209.51,141.1-258.027,79.794-42.3,162.332-86.034,184.69-208.38,27.523-150.485-68.451-294.206-177.1-346.23-97.311-46.6-196.744-22.579-272.8,65.833-82.614,96.022-181.334,143.8-285.176,138.117-105.015-5.723-210.12-67.334-274.3-160.785C1345.947,106.882,1241.377,60.61,1127.188,86.652,1003.839,114.79,890.05,224.16,873.527,330.483c-16.834,108.3-58.668,117.977-121.983,132.633-45.174,10.464-101.393,23.47-170.631,75.45l-2.153-2.869,2.153,2.869c-161.427,121.2-137.244,331.991-46.466,476.574,98.083,156.177,291.2,264.834,501.531,155.419C1148.267,1112.159,1225.092,1089.476,1281.742,1089.476Z" transform="translate(-455.708 -72.368)" fill="#feedbe"/></g><path d="M1933.021,181.055c-176.837,235.225-438.982,165.928-562.206,35.882-232.713-245.615-539.375-7-547.6,162.391s-115.227,85.5-271.345,219.083c-290.133,248.246,140.764,780.843,535.035,540.475s346.6,15.31,592.173,92.827c245.554,77.516,570.694-107.364,469.26-375.156-101.433-267.807,257.7-208.187,277.38-461.2C2444.2,157.748,2109.86-54.184,1933.021,181.055Z" transform="translate(-423.585 78.48)" fill="#032261"/></g></svg>